<?xml version="1.0" encoding="UTF-8"?>
<svg xmlns="http://www.w3.org/2000/svg" xmlns:xlink="http://www.w3.org/1999/xlink" width="317px" height="74px" viewBox="0 0 317 74" version="1.1">
<defs>
<filter id="alpha" filterUnits="objectBoundingBox" x="0%" y="0%" width="100%" height="100%">
  <feColorMatrix type="matrix" in="SourceGraphic" values="0 0 0 0 1 0 0 0 0 1 0 0 0 0 1 0 0 0 1 0"/>
</filter>
<mask id="mask0">
  <g filter="url(#alpha)">
<rect x="0" y="0" width="317" height="74" style="fill:rgb(0%,0%,0%);fill-opacity:0.976471;stroke:none;"/>
  </g>
</mask>
<clipPath id="clip1">
  <rect x="0" y="0" width="317" height="74"/>
</clipPath>
<g id="surface5" clip-path="url(#clip1)">
<path style=" stroke:none;fill-rule:evenodd;fill:rgb(99.215686%,87.843137%,41.960784%);fill-opacity:1;" d="M 41.871094 -0.257812 C 42.898438 -0.257812 43.929688 -0.257812 44.957031 -0.257812 C 46.71875 2.222656 46.203125 3.933594 43.414062 4.882812 C 40.625 3.933594 40.109375 2.222656 41.871094 -0.257812 Z M 41.871094 -0.257812 "/>
</g>
<mask id="mask1">
  <g filter="url(#alpha)">
<rect x="0" y="0" width="317" height="74" style="fill:rgb(0%,0%,0%);fill-opacity:0.701961;stroke:none;"/>
  </g>
</mask>
<clipPath id="clip2">
  <rect x="0" y="0" width="317" height="74"/>
</clipPath>
<g id="surface8" clip-path="url(#clip2)">
<path style=" stroke:none;fill-rule:evenodd;fill:rgb(99.215686%,87.45098%,40.784314%);fill-opacity:1;" d="M 22.347656 1.285156 C 23.785156 1.261719 24.726562 1.945312 25.175781 3.339844 C 26.574219 6.65625 28.117188 9.910156 29.800781 13.105469 C 30.050781 13.945312 30.136719 14.800781 30.054688 15.671875 C 28.914062 15.839844 27.972656 15.496094 27.230469 14.644531 C 24.988281 10.820312 22.847656 6.964844 20.808594 3.082031 C 21.101562 2.261719 21.613281 1.660156 22.347656 1.285156 Z M 22.347656 1.285156 "/>
</g>
<mask id="mask2">
  <g filter="url(#alpha)">
<rect x="0" y="0" width="317" height="74" style="fill:rgb(0%,0%,0%);fill-opacity:0.415686;stroke:none;"/>
  </g>
</mask>
<clipPath id="clip3">
  <rect x="0" y="0" width="317" height="74"/>
</clipPath>
<g id="surface11" clip-path="url(#clip3)">
<path style=" stroke:none;fill-rule:evenodd;fill:rgb(99.215686%,88.235294%,46.666667%);fill-opacity:1;" d="M 58.828125 7.453125 C 57.726562 9.308594 56.613281 11.191406 55.488281 13.105469 C 54.570312 13.992188 53.457031 14.335938 52.148438 14.132812 C 52.066406 13.425781 52.152344 12.742188 52.40625 12.078125 C 54.160156 9.421875 55.789062 6.679688 57.285156 3.855469 C 59.816406 2.183594 60.757812 2.867188 60.113281 5.910156 C 59.917969 6.652344 59.488281 7.164062 58.828125 7.453125 Z M 58.828125 7.453125 "/>
</g>
<mask id="mask3">
  <g filter="url(#alpha)">
<rect x="0" y="0" width="317" height="74" style="fill:rgb(0%,0%,0%);fill-opacity:0.917647;stroke:none;"/>
  </g>
</mask>
<clipPath id="clip4">
  <rect x="0" y="0" width="317" height="74"/>
</clipPath>
<g id="surface14" clip-path="url(#clip4)">
<path style=" stroke:none;fill-rule:evenodd;fill:rgb(18.039216%,56.862745%,100%);fill-opacity:1;" d="M 102.5 15.671875 C 106.316406 15.679688 110.082031 16.109375 113.800781 16.957031 C 117.863281 18.652344 120.433594 21.652344 121.507812 25.953125 C 117.808594 27.253906 114.039062 27.769531 110.203125 27.492188 C 109.023438 25.273438 107.136719 24.246094 104.554688 24.410156 C 100.5625 24.542969 98.253906 26.601562 97.617188 30.578125 C 97.273438 32.972656 97.273438 35.371094 97.617188 37.769531 C 97.894531 40.648438 99.351562 42.617188 101.984375 43.679688 C 104.039062 44.023438 106.09375 44.023438 108.148438 43.679688 C 110.789062 43.359375 111.988281 41.902344 111.746094 39.3125 C 109.347656 39.3125 106.953125 39.3125 104.554688 39.3125 C 104.554688 36.570312 104.554688 33.832031 104.554688 31.089844 C 110.375 31.089844 116.199219 31.089844 122.023438 31.089844 C 122.191406 36.410156 122.019531 41.722656 121.507812 47.019531 C 112.320312 52.9375 102.730469 53.707031 92.738281 49.332031 C 86.332031 43.324219 84.363281 36.046875 86.828125 27.492188 C 89.527344 20.113281 94.75 16.175781 102.5 15.671875 Z M 102.5 15.671875 "/>
</g>
<mask id="mask4">
  <g filter="url(#alpha)">
<rect x="0" y="0" width="317" height="74" style="fill:rgb(0%,0%,0%);fill-opacity:0.929412;stroke:none;"/>
  </g>
</mask>
<clipPath id="clip5">
  <rect x="0" y="0" width="317" height="74"/>
</clipPath>
<g id="surface17" clip-path="url(#clip5)">
<path style=" stroke:none;fill-rule:evenodd;fill:rgb(18.039216%,56.862745%,100%);fill-opacity:1;" d="M 175.96875 16.1875 C 179.394531 16.1875 182.820312 16.1875 186.242188 16.1875 C 186.242188 28.007812 186.242188 39.828125 186.242188 51.644531 C 182.988281 51.644531 179.734375 51.644531 176.480469 51.644531 C 176.835938 48.511719 176.148438 48.253906 174.425781 50.875 C 163.78125 53.949219 158.300781 49.839844 157.984375 38.542969 C 158.042969 29.234375 162.667969 24.949219 171.859375 25.695312 C 173.199219 26.023438 174.398438 26.621094 175.453125 27.492188 C 175.96875 23.738281 176.136719 19.972656 175.96875 16.1875 Z M 170.832031 33.144531 C 173.339844 32.816406 174.96875 33.84375 175.710938 36.230469 C 176.433594 39.238281 175.835938 41.890625 173.914062 44.195312 C 171.066406 45.167969 169.269531 44.226562 168.519531 41.367188 C 167.71875 38.089844 168.488281 35.347656 170.832031 33.144531 Z M 170.832031 33.144531 "/>
</g>
<mask id="mask5">
  <g filter="url(#alpha)">
<rect x="0" y="0" width="317" height="74" style="fill:rgb(0%,0%,0%);fill-opacity:0.109804;stroke:none;"/>
  </g>
</mask>
<clipPath id="clip6">
  <rect x="0" y="0" width="317" height="74"/>
</clipPath>
<g id="surface20" clip-path="url(#clip6)">
<path style=" stroke:none;fill-rule:evenodd;fill:rgb(99.215686%,89.019608%,48.627451%);fill-opacity:1;" d="M 21.320312 18.757812 C 23.234375 18.902344 23.835938 19.929688 23.121094 21.839844 C 20.308594 22.1875 19.707031 21.160156 21.320312 18.757812 Z M 21.320312 18.757812 "/>
</g>
<mask id="mask6">
  <g filter="url(#alpha)">
<rect x="0" y="0" width="317" height="74" style="fill:rgb(0%,0%,0%);fill-opacity:0.894118;stroke:none;"/>
  </g>
</mask>
<clipPath id="clip7">
  <rect x="0" y="0" width="317" height="74"/>
</clipPath>
<g id="surface23" clip-path="url(#clip7)">
<path style=" stroke:none;fill-rule:evenodd;fill:rgb(98.823529%,88.627451%,49.411765%);fill-opacity:1;" d="M 58.828125 23.382812 C 58.484375 23.382812 58.3125 23.554688 58.3125 23.894531 C 57.972656 23.894531 57.628906 23.894531 57.285156 23.894531 C 57.242188 23.382812 57.414062 22.957031 57.800781 22.609375 C 56.707031 21.753906 56.023438 20.640625 55.746094 19.269531 C 55.207031 20.773438 54.351562 22.054688 53.175781 23.125 C 54.597656 24.03125 55.367188 25.316406 55.488281 26.980469 C 55.609375 26.148438 56.035156 25.632812 56.773438 25.4375 C 56.832031 26.457031 56.488281 27.3125 55.746094 28.007812 C 54.855469 26.140625 53.65625 24.511719 52.148438 23.125 C 53.667969 22.0625 54.609375 20.605469 54.972656 18.757812 C 55.492188 18.328125 56.09375 18.15625 56.773438 18.242188 C 56.96875 20.222656 57.65625 21.933594 58.828125 23.382812 Z M 58.828125 23.382812 "/>
</g>
<mask id="mask7">
  <g filter="url(#alpha)">
<rect x="0" y="0" width="317" height="74" style="fill:rgb(0%,0%,0%);fill-opacity:0.627451;stroke:none;"/>
  </g>
</mask>
<clipPath id="clip8">
  <rect x="0" y="0" width="317" height="74"/>
</clipPath>
<g id="surface26" clip-path="url(#clip8)">
<path style=" stroke:none;fill-rule:evenodd;fill:rgb(23.921569%,78.039216%,87.843137%);fill-opacity:1;" d="M 24.40625 22.355469 C 26.378906 23.273438 26.464844 24.472656 24.660156 25.953125 C 23.085938 24.878906 23 23.679688 24.40625 22.355469 Z M 24.40625 22.355469 "/>
</g>
<mask id="mask8">
  <g filter="url(#alpha)">
<rect x="0" y="0" width="317" height="74" style="fill:rgb(0%,0%,0%);fill-opacity:0.85098;stroke:none;"/>
  </g>
</mask>
<clipPath id="clip9">
  <rect x="0" y="0" width="317" height="74"/>
</clipPath>
<g id="surface29" clip-path="url(#clip9)">
<path style=" stroke:none;fill-rule:evenodd;fill:rgb(98.431373%,87.45098%,43.529412%);fill-opacity:1;" d="M 31.597656 21.328125 C 31.789062 22.457031 32.132812 23.484375 32.625 24.410156 C 31.566406 26.195312 30.28125 26.367188 28.769531 24.921875 C 28.089844 22.4375 29.03125 21.238281 31.597656 21.328125 Z M 31.597656 21.328125 "/>
</g>
<mask id="mask9">
  <g filter="url(#alpha)">
<rect x="0" y="0" width="317" height="74" style="fill:rgb(0%,0%,0%);fill-opacity:0.92549;stroke:none;"/>
  </g>
</mask>
<clipPath id="clip10">
  <rect x="0" y="0" width="317" height="74"/>
</clipPath>
<g id="surface32" clip-path="url(#clip10)">
<path style=" stroke:none;fill-rule:evenodd;fill:rgb(18.039216%,56.862745%,100%);fill-opacity:1;" d="M 238.648438 25.4375 C 245.730469 24.65625 250.097656 27.738281 251.75 34.6875 C 252.4375 39.140625 251.921875 43.425781 250.210938 47.535156 C 247.164062 51.632812 243.140625 53.089844 238.136719 51.902344 C 236.570312 51.589844 235.285156 50.820312 234.28125 49.589844 C 234.023438 53.527344 233.941406 57.464844 234.023438 61.410156 C 230.601562 61.410156 227.175781 61.410156 223.75 61.410156 C 223.75 49.589844 223.75 37.769531 223.75 25.953125 C 227.003906 25.953125 230.257812 25.953125 233.511719 25.953125 C 233.429688 26.992188 233.515625 28.019531 233.769531 29.035156 C 235.054688 27.3125 236.683594 26.113281 238.648438 25.4375 Z M 237.109375 33.144531 C 239.160156 33.015625 240.613281 33.871094 241.476562 35.714844 C 241.816406 37.769531 241.816406 39.828125 241.476562 41.882812 C 239.511719 45.089844 237.285156 45.261719 234.796875 42.394531 C 233.335938 38.644531 234.105469 35.5625 237.109375 33.144531 Z M 237.109375 33.144531 "/>
</g>
<mask id="mask10">
  <g filter="url(#alpha)">
<rect x="0" y="0" width="317" height="74" style="fill:rgb(0%,0%,0%);fill-opacity:0.913725;stroke:none;"/>
  </g>
</mask>
<clipPath id="clip11">
  <rect x="0" y="0" width="317" height="74"/>
</clipPath>
<g id="surface35" clip-path="url(#clip11)">
<path style=" stroke:none;fill-rule:evenodd;fill:rgb(18.039216%,56.862745%,100%);fill-opacity:1;" d="M 264.339844 25.4375 C 268.820312 25.261719 273.273438 25.519531 277.695312 26.207031 C 280.625 27.421875 282.425781 29.566406 283.089844 32.632812 C 283.261719 37.941406 283.433594 43.253906 283.605469 48.5625 C 284.023438 49.558594 284.277344 50.585938 284.375 51.644531 C 281.101562 51.816406 277.847656 51.644531 274.613281 51.132812 C 274.304688 50.464844 274.050781 49.78125 273.84375 49.078125 C 269.960938 51.980469 265.59375 52.921875 260.742188 51.902344 C 255.5625 49.84375 253.933594 46.160156 255.859375 40.855469 C 257.175781 39.296875 258.800781 38.183594 260.742188 37.515625 C 264.722656 36.734375 268.664062 35.792969 272.558594 34.6875 C 273.347656 32.636719 272.578125 31.609375 270.246094 31.605469 C 269.125 31.820312 268.011719 32.078125 266.90625 32.375 C 266.117188 32.945312 265.773438 33.714844 265.878906 34.6875 C 262.371094 34.621094 258.949219 34.109375 255.605469 33.144531 C 256.972656 28.785156 259.882812 26.214844 264.339844 25.4375 Z M 273.070312 40.339844 C 273.457031 44.074219 271.742188 46.128906 267.933594 46.507812 C 265.324219 45.726562 264.808594 44.273438 266.394531 42.140625 C 268.558594 41.273438 270.785156 40.675781 273.070312 40.339844 Z M 273.070312 40.339844 "/>
</g>
<mask id="mask11">
  <g filter="url(#alpha)">
<rect x="0" y="0" width="317" height="74" style="fill:rgb(0%,0%,0%);fill-opacity:0.92549;stroke:none;"/>
  </g>
</mask>
<clipPath id="clip12">
  <rect x="0" y="0" width="317" height="74"/>
</clipPath>
<g id="surface38" clip-path="url(#clip12)">
<path style=" stroke:none;fill-rule:evenodd;fill:rgb(18.039216%,56.862745%,100%);fill-opacity:1;" d="M 316.742188 35.203125 C 316.742188 37.597656 316.742188 39.996094 316.742188 42.394531 C 313.160156 50.664062 306.824219 53.832031 297.734375 51.902344 C 288.960938 48.828125 285.789062 42.746094 288.230469 33.660156 C 292.132812 26.785156 298.042969 24.128906 305.953125 25.695312 C 311.429688 26.808594 315.027344 29.976562 316.742188 35.203125 Z M 300.300781 32.632812 C 303.207031 31.984375 305.175781 33.011719 306.210938 35.714844 C 306.554688 37.769531 306.554688 39.828125 306.210938 41.882812 C 304.753906 44.988281 302.441406 45.757812 299.273438 44.195312 C 296.957031 40.046875 297.300781 36.191406 300.300781 32.632812 Z M 300.300781 32.632812 "/>
</g>
<mask id="mask12">
  <g filter="url(#alpha)">
<rect x="0" y="0" width="317" height="74" style="fill:rgb(0%,0%,0%);fill-opacity:0.929412;stroke:none;"/>
  </g>
</mask>
<clipPath id="clip13">
  <rect x="0" y="0" width="317" height="74"/>
</clipPath>
<g id="surface41" clip-path="url(#clip13)">
<path style=" stroke:none;fill-rule:evenodd;fill:rgb(18.039216%,56.862745%,100%);fill-opacity:1;" d="M 126.644531 25.953125 C 130.070312 25.953125 133.496094 25.953125 136.921875 25.953125 C 136.835938 31.09375 136.921875 36.230469 137.179688 41.367188 C 137.921875 43.792969 139.550781 44.5625 142.058594 43.679688 C 142.773438 43.078125 143.203125 42.308594 143.34375 41.367188 C 143.601562 36.230469 143.6875 31.09375 143.601562 25.953125 C 147.027344 25.953125 150.449219 25.953125 153.875 25.953125 C 153.875 34.515625 153.875 43.082031 153.875 51.644531 C 150.621094 51.644531 147.367188 51.644531 144.113281 51.644531 C 144.199219 50.605469 144.113281 49.578125 143.855469 48.5625 C 140.71875 51.949219 136.867188 53.0625 132.296875 51.902344 C 129.15625 50.644531 127.355469 48.332031 126.902344 44.964844 C 126.644531 38.628906 126.558594 32.292969 126.644531 25.953125 Z M 126.644531 25.953125 "/>
</g>
<mask id="mask13">
  <g filter="url(#alpha)">
<rect x="0" y="0" width="317" height="74" style="fill:rgb(0%,0%,0%);fill-opacity:0.929412;stroke:none;"/>
  </g>
</mask>
<clipPath id="clip14">
  <rect x="0" y="0" width="317" height="74"/>
</clipPath>
<g id="surface44" clip-path="url(#clip14)">
<path style=" stroke:none;fill-rule:evenodd;fill:rgb(18.039216%,56.862745%,100%);fill-opacity:1;" d="M 191.382812 25.953125 C 194.808594 25.953125 198.230469 25.953125 201.65625 25.953125 C 201.570312 31.09375 201.65625 36.230469 201.914062 41.367188 C 202.660156 43.792969 204.285156 44.5625 206.796875 43.679688 C 207.511719 43.078125 207.9375 42.308594 208.078125 41.367188 C 208.335938 36.230469 208.421875 31.09375 208.335938 25.953125 C 211.761719 25.953125 215.1875 25.953125 218.613281 25.953125 C 218.613281 34.515625 218.613281 43.082031 218.613281 51.644531 C 215.359375 51.644531 212.105469 51.644531 208.851562 51.644531 C 208.933594 50.605469 208.847656 49.578125 208.59375 48.5625 C 205.457031 51.949219 201.601562 53.0625 197.035156 51.902344 C 193.890625 50.644531 192.09375 48.332031 191.636719 44.964844 C 191.382812 38.628906 191.296875 32.292969 191.382812 25.953125 Z M 191.382812 25.953125 "/>
</g>
<mask id="mask14">
  <g filter="url(#alpha)">
<rect x="0" y="0" width="317" height="74" style="fill:rgb(0%,0%,0%);fill-opacity:0.72549;stroke:none;"/>
  </g>
</mask>
<clipPath id="clip15">
  <rect x="0" y="0" width="317" height="74"/>
</clipPath>
<g id="surface47" clip-path="url(#clip15)">
<path style=" stroke:none;fill-rule:evenodd;fill:rgb(99.215686%,88.235294%,47.058824%);fill-opacity:1;" d="M 11.558594 26.464844 C 11.628906 26.84375 11.542969 27.1875 11.304688 27.492188 C 7.960938 25.777344 4.449219 24.578125 0.769531 23.894531 C 0.769531 24.582031 0.769531 25.265625 0.769531 25.953125 C 8.578125 28.675781 16.457031 31.246094 24.40625 33.660156 C 25.59375 33.507812 25.59375 33.078125 24.40625 32.375 C 22.890625 32.304688 21.691406 31.703125 20.808594 30.578125 C 22.589844 30.910156 24.214844 31.597656 25.6875 32.632812 C 26.128906 33.714844 25.785156 34.398438 24.660156 34.6875 C 16.238281 32.023438 7.933594 29.109375 -0.257812 25.953125 C -0.257812 25.265625 -0.257812 24.582031 -0.257812 23.894531 C 0.273438 23.457031 0.871094 23.113281 1.542969 22.867188 C 4.875 24.121094 8.214844 25.320312 11.558594 26.464844 Z M 11.558594 26.464844 "/>
</g>
<mask id="mask15">
  <g filter="url(#alpha)">
<rect x="0" y="0" width="317" height="74" style="fill:rgb(0%,0%,0%);fill-opacity:0.611765;stroke:none;"/>
  </g>
</mask>
<clipPath id="clip16">
  <rect x="0" y="0" width="317" height="74"/>
</clipPath>
<g id="surface50" clip-path="url(#clip16)">
<path style=" stroke:none;fill-rule:evenodd;fill:rgb(98.431373%,88.235294%,45.490196%);fill-opacity:1;" d="M 61.910156 32.117188 C 61.339844 32.089844 60.828125 31.917969 60.367188 31.605469 C 60.367188 30.746094 60.367188 29.890625 60.367188 29.035156 C 61.800781 28.816406 62.828125 29.332031 63.453125 30.578125 C 63.097656 31.273438 62.585938 31.785156 61.910156 32.117188 Z M 61.910156 32.117188 "/>
</g>
<mask id="mask16">
  <g filter="url(#alpha)">
<rect x="0" y="0" width="317" height="74" style="fill:rgb(0%,0%,0%);fill-opacity:0.196078;stroke:none;"/>
  </g>
</mask>
<clipPath id="clip17">
  <rect x="0" y="0" width="317" height="74"/>
</clipPath>
<g id="surface53" clip-path="url(#clip17)">
<path style=" stroke:none;fill-rule:evenodd;fill:rgb(32.156863%,80%,88.235294%);fill-opacity:1;" d="M 28 29.546875 C 28.515625 29.546875 29.027344 29.546875 29.542969 29.546875 C 29.664062 30.820312 30.347656 31.675781 31.597656 32.117188 C 31.175781 32.945312 30.492188 33.289062 29.542969 33.144531 C 29.542969 33.660156 29.542969 34.171875 29.542969 34.6875 C 29.027344 34.6875 28.515625 34.6875 28 34.6875 C 28 34.171875 28 33.660156 28 33.144531 C 27.488281 33.144531 26.972656 33.144531 26.460938 33.144531 C 26.460938 32.632812 26.460938 32.117188 26.460938 31.605469 C 26.972656 31.605469 27.488281 31.605469 28 31.605469 C 28 30.917969 28 30.234375 28 29.546875 Z M 28 29.546875 "/>
</g>
<mask id="mask17">
  <g filter="url(#alpha)">
<rect x="0" y="0" width="317" height="74" style="fill:rgb(0%,0%,0%);fill-opacity:0.054902;stroke:none;"/>
  </g>
</mask>
<clipPath id="clip18">
  <rect x="0" y="0" width="317" height="74"/>
</clipPath>
<g id="surface56" clip-path="url(#clip18)">
<path style=" stroke:none;fill-rule:evenodd;fill:rgb(22.745098%,78.431373%,88.235294%);fill-opacity:1;" d="M 41.359375 35.714844 C 42.117188 35.582031 42.804688 35.75 43.414062 36.230469 C 44 36.703125 44 37.132812 43.414062 37.515625 C 44.128906 38.039062 44.898438 38.464844 45.726562 38.796875 C 45.972656 39.285156 46.058594 39.800781 45.984375 40.339844 C 44.210938 39.957031 43.355469 40.644531 43.414062 42.394531 C 42.730469 42.394531 42.042969 42.394531 41.359375 42.394531 C 41.441406 41.691406 41.355469 41.003906 41.101562 40.339844 C 37.996094 39.03125 38.082031 38.175781 41.359375 37.769531 C 41.359375 37.085938 41.359375 36.402344 41.359375 35.714844 Z M 41.359375 35.714844 "/>
</g>
<mask id="mask18">
  <g filter="url(#alpha)">
<rect x="0" y="0" width="317" height="74" style="fill:rgb(0%,0%,0%);fill-opacity:0.980392;stroke:none;"/>
  </g>
</mask>
<clipPath id="clip19">
  <rect x="0" y="0" width="317" height="74"/>
</clipPath>
<g id="surface59" clip-path="url(#clip19)">
<path style=" stroke:none;fill-rule:evenodd;fill:rgb(99.215686%,86.666667%,37.254902%);fill-opacity:1;" d="M 17.210938 39.828125 C 20.605469 38.925781 21.890625 40.125 21.066406 43.421875 C 18.71875 45.554688 17.089844 45.042969 16.183594 41.882812 C 16.535156 41.183594 16.875 40.496094 17.210938 39.828125 Z M 17.210938 39.828125 "/>
</g>
<mask id="mask19">
  <g filter="url(#alpha)">
<rect x="0" y="0" width="317" height="74" style="fill:rgb(0%,0%,0%);fill-opacity:0.972549;stroke:none;"/>
  </g>
</mask>
<clipPath id="clip20">
  <rect x="0" y="0" width="317" height="74"/>
</clipPath>
<g id="surface62" clip-path="url(#clip20)">
<path style=" stroke:none;fill-rule:evenodd;fill:rgb(99.215686%,86.666667%,36.862745%);fill-opacity:1;" d="M 21.835938 50.617188 C 16.082031 53.28125 10.347656 56.019531 4.625 58.839844 C 3.851562 58.753906 3.425781 58.328125 3.339844 57.554688 C 3.882812 56.78125 4.394531 56.011719 4.882812 55.242188 C 10.691406 52.851562 16.511719 50.453125 22.347656 48.046875 C 23.78125 49.230469 23.609375 50.085938 21.835938 50.617188 Z M 21.835938 50.617188 "/>
</g>
<mask id="mask20">
  <g filter="url(#alpha)">
<rect x="0" y="0" width="317" height="74" style="fill:rgb(0%,0%,0%);fill-opacity:0.32549;stroke:none;"/>
  </g>
</mask>
<clipPath id="clip21">
  <rect x="0" y="0" width="317" height="74"/>
</clipPath>
<g id="surface65" clip-path="url(#clip21)">
<path style=" stroke:none;fill-rule:evenodd;fill:rgb(99.215686%,88.235294%,45.882353%);fill-opacity:1;" d="M 21.835938 50.617188 C 16.261719 53.878906 10.523438 56.960938 4.625 59.867188 C 1.515625 58.152344 1.597656 56.609375 4.882812 55.242188 C 4.394531 56.011719 3.882812 56.78125 3.339844 57.554688 C 3.425781 58.328125 3.851562 58.753906 4.625 58.839844 C 10.347656 56.019531 16.082031 53.28125 21.835938 50.617188 Z M 21.835938 50.617188 "/>
</g>
<mask id="mask21">
  <g filter="url(#alpha)">
<rect x="0" y="0" width="317" height="74" style="fill:rgb(0%,0%,0%);fill-opacity:0.635294;stroke:none;"/>
  </g>
</mask>
<clipPath id="clip22">
  <rect x="0" y="0" width="317" height="74"/>
</clipPath>
<g id="surface68" clip-path="url(#clip22)">
<path style=" stroke:none;fill-rule:evenodd;fill:rgb(99.607843%,88.627451%,47.058824%);fill-opacity:1;" d="M 20.808594 56.269531 C 21.664062 56.269531 22.519531 56.269531 23.375 56.269531 C 23.375 57.128906 23.375 57.984375 23.375 58.839844 C 22.519531 58.839844 21.664062 58.839844 20.808594 58.839844 C 20.808594 57.984375 20.808594 57.128906 20.808594 56.269531 Z M 20.808594 56.269531 "/>
</g>
<mask id="mask22">
  <g filter="url(#alpha)">
<rect x="0" y="0" width="317" height="74" style="fill:rgb(0%,0%,0%);fill-opacity:0.976471;stroke:none;"/>
  </g>
</mask>
<clipPath id="clip23">
  <rect x="0" y="0" width="317" height="74"/>
</clipPath>
<g id="surface71" clip-path="url(#clip23)">
<path style=" stroke:none;fill-rule:evenodd;fill:rgb(98.823529%,87.45098%,43.529412%);fill-opacity:1;" d="M 53.691406 58.328125 C 54.949219 58.113281 55.632812 58.628906 55.746094 59.867188 C 54.777344 61.921875 53.921875 61.835938 53.175781 59.609375 C 53.300781 59.148438 53.472656 58.71875 53.691406 58.328125 Z M 53.691406 58.328125 "/>
</g>
<mask id="mask23">
  <g filter="url(#alpha)">
<rect x="0" y="0" width="317" height="74" style="fill:rgb(0%,0%,0%);fill-opacity:0.976471;stroke:none;"/>
  </g>
</mask>
<clipPath id="clip24">
  <rect x="0" y="0" width="317" height="74"/>
</clipPath>
<g id="surface74" clip-path="url(#clip24)">
<path style=" stroke:none;fill-rule:evenodd;fill:rgb(98.823529%,87.45098%,41.960784%);fill-opacity:1;" d="M 59.855469 56.269531 C 63.183594 58.367188 66.4375 60.59375 69.617188 62.953125 C 70.09375 63.5625 70.265625 64.246094 70.128906 65.007812 C 69.425781 65.085938 68.738281 65 68.074219 64.75 C 64.917969 62.363281 61.835938 59.878906 58.828125 57.296875 C 59.210938 56.949219 59.550781 56.605469 59.855469 56.269531 Z M 59.855469 56.269531 "/>
</g>
</defs>
<g id="surface1">
<use xlink:href="#surface5" mask="url(#mask0)"/>
<use xlink:href="#surface8" mask="url(#mask1)"/>
<use xlink:href="#surface11" mask="url(#mask2)"/>
<path style=" stroke:none;fill-rule:evenodd;fill:rgb(99.607843%,86.666667%,34.509804%);fill-opacity:1;" d="M 58.828125 7.453125 C 57.046875 9.15625 55.507812 11.125 54.203125 13.359375 C 53.699219 13.664062 53.355469 13.492188 53.175781 12.847656 C 54.5625 10.160156 56.019531 7.503906 57.542969 4.882812 C 58.113281 4.09375 58.882812 3.75 59.855469 3.855469 C 59.660156 5.097656 59.316406 6.296875 58.828125 7.453125 Z M 58.828125 7.453125 "/>
<path style=" stroke:none;fill-rule:evenodd;fill:rgb(30.196078%,73.333333%,99.215686%);fill-opacity:1;" d="M 32.625 24.410156 C 32.132812 23.484375 31.789062 22.457031 31.597656 21.328125 C 33.210938 21.003906 34.496094 20.148438 35.449219 18.757812 C 36.773438 16.679688 37.800781 14.453125 38.535156 12.078125 C 39.230469 11.625 40 11.453125 40.84375 11.5625 C 41.046875 12.921875 41.046875 14.207031 40.84375 15.417969 C 41.667969 16.410156 42.269531 17.523438 42.644531 18.757812 C 44.089844 19.605469 45.375 20.632812 46.496094 21.839844 C 45.84375 23.035156 44.816406 23.636719 43.414062 23.640625 C 42.753906 24.363281 42.152344 25.132812 41.617188 25.953125 C 41.101562 28.179688 40.589844 30.40625 40.074219 32.632812 C 39.21875 33.316406 38.363281 33.316406 37.503906 32.632812 C 37.566406 28.800781 35.9375 26.058594 32.625 24.410156 Z M 38.789062 18.757812 C 39.417969 19.496094 39.933594 20.351562 40.332031 21.328125 C 39.457031 22.632812 38.6875 24 38.019531 25.4375 C 37.078125 24.496094 36.136719 23.554688 35.195312 22.609375 C 36.847656 21.730469 38.046875 20.445312 38.789062 18.757812 Z M 38.789062 18.757812 "/>
<use xlink:href="#surface14" mask="url(#mask3)"/>
<use xlink:href="#surface17" mask="url(#mask4)"/>
<path style=" stroke:none;fill-rule:evenodd;fill:rgb(99.215686%,88.235294%,45.098039%);fill-opacity:1;" d="M 51.121094 18.242188 C 52.925781 18.515625 53.4375 19.457031 52.660156 21.070312 C 50.625 21.128906 50.113281 20.1875 51.121094 18.242188 Z M 51.121094 18.242188 "/>
<use xlink:href="#surface20" mask="url(#mask5)"/>
<use xlink:href="#surface23" mask="url(#mask6)"/>
<path style=" stroke:none;fill-rule:evenodd;fill:rgb(99.215686%,86.666667%,35.294118%);fill-opacity:1;" d="M 57.285156 23.894531 C 57.257812 24.464844 57.085938 24.980469 56.773438 25.4375 C 56.035156 25.632812 55.609375 26.148438 55.488281 26.980469 C 55.367188 25.316406 54.597656 24.03125 53.175781 23.125 C 54.351562 22.054688 55.207031 20.773438 55.746094 19.269531 C 56.023438 20.640625 56.707031 21.753906 57.800781 22.609375 C 57.414062 22.957031 57.242188 23.382812 57.285156 23.894531 Z M 57.285156 23.894531 "/>
<path style=" stroke:none;fill-rule:evenodd;fill:rgb(99.215686%,87.058824%,38.823529%);fill-opacity:1;" d="M 58.3125 23.894531 C 58.65625 23.894531 58.828125 23.722656 58.828125 23.382812 C 61.808594 21.289062 64.890625 19.320312 68.074219 17.472656 C 70.242188 16.875 71.183594 17.644531 70.902344 19.785156 C 67.792969 21.640625 64.621094 23.441406 61.394531 25.179688 C 60.539062 25.523438 59.683594 25.523438 58.828125 25.179688 C 58.441406 24.835938 58.269531 24.40625 58.3125 23.894531 Z M 58.3125 23.894531 "/>
<use xlink:href="#surface26" mask="url(#mask7)"/>
<use xlink:href="#surface29" mask="url(#mask8)"/>
<use xlink:href="#surface32" mask="url(#mask9)"/>
<use xlink:href="#surface35" mask="url(#mask10)"/>
<use xlink:href="#surface38" mask="url(#mask11)"/>
<use xlink:href="#surface41" mask="url(#mask12)"/>
<use xlink:href="#surface44" mask="url(#mask13)"/>
<use xlink:href="#surface47" mask="url(#mask14)"/>
<path style=" stroke:none;fill-rule:evenodd;fill:rgb(99.607843%,87.058824%,36.862745%);fill-opacity:1;" d="M 11.558594 26.464844 C 14.675781 27.855469 17.757812 29.222656 20.808594 30.578125 C 21.691406 31.703125 22.890625 32.304688 24.40625 32.375 C 25.59375 33.078125 25.59375 33.507812 24.40625 33.660156 C 16.457031 31.246094 8.578125 28.675781 0.769531 25.953125 C 0.769531 25.265625 0.769531 24.582031 0.769531 23.894531 C 4.449219 24.578125 7.960938 25.777344 11.304688 27.492188 C 11.542969 27.1875 11.628906 26.84375 11.558594 26.464844 Z M 11.558594 26.464844 "/>
<use xlink:href="#surface50" mask="url(#mask15)"/>
<use xlink:href="#surface53" mask="url(#mask16)"/>
<path style=" stroke:none;fill-rule:evenodd;fill:rgb(20%,77.254902%,87.45098%);fill-opacity:1;" d="M 60.367188 31.605469 C 60.828125 31.917969 61.339844 32.089844 61.910156 32.117188 C 62.980469 33.75 63.152344 35.464844 62.421875 37.257812 C 61.378906 37.539062 60.867188 38.222656 60.882812 39.3125 C 58.714844 39.019531 57.6875 37.734375 57.800781 35.457031 C 57.714844 33.480469 58.570312 32.195312 60.367188 31.605469 Z M 60.367188 31.605469 "/>
<path style=" stroke:none;fill-rule:evenodd;fill:rgb(27.45098%,72.54902%,99.215686%);fill-opacity:1;" d="M 58.3125 47.019531 C 57.804688 46.933594 57.460938 47.105469 57.285156 47.535156 C 56.945312 47.535156 56.773438 47.707031 56.773438 48.046875 C 55.828125 48.367188 55.230469 49.054688 54.972656 50.105469 C 54.578125 51.976562 54.234375 53.863281 53.945312 55.757812 C 52.917969 57.8125 51.890625 57.8125 50.863281 55.757812 C 51.023438 51.441406 49.054688 48.699219 44.957031 47.535156 C 44.785156 47.191406 44.613281 46.847656 44.441406 46.507812 C 48.785156 43.996094 51.355469 40.226562 52.148438 35.203125 C 52.992188 35.089844 53.761719 35.261719 54.460938 35.714844 C 54.515625 38.054688 55.03125 40.28125 56 42.394531 C 57.078125 43.4375 58.277344 44.292969 59.597656 44.964844 C 59.941406 45.308594 59.941406 45.652344 59.597656 45.992188 C 59.085938 46.285156 58.660156 46.625 58.3125 47.019531 Z M 52.148438 42.910156 C 53.117188 43.371094 53.804688 44.144531 54.203125 45.222656 C 52.988281 46.441406 52.214844 47.894531 51.890625 49.589844 C 51 48.503906 50.058594 47.476562 49.066406 46.507812 C 50.382812 45.519531 51.410156 44.320312 52.148438 42.910156 Z M 52.148438 42.910156 "/>
<path style=" stroke:none;fill-rule:evenodd;fill:rgb(99.607843%,86.666667%,34.509804%);fill-opacity:1;" d="M 74.242188 38.796875 C 74.242188 38.96875 74.242188 39.140625 74.242188 39.3125 C 73.679688 39.867188 72.992188 40.210938 72.1875 40.339844 C 68.601562 39.742188 65.003906 39.226562 61.394531 38.796875 C 65.707031 38.128906 69.988281 38.128906 74.242188 38.796875 Z M 74.242188 38.796875 "/>
<use xlink:href="#surface56" mask="url(#mask17)"/>
<path style=" stroke:none;fill-rule:evenodd;fill:rgb(98.823529%,88.235294%,44.705882%);fill-opacity:1;" d="M 62.421875 37.257812 C 66.195312 37.171875 69.964844 37.257812 73.726562 37.515625 C 74.113281 37.859375 74.285156 38.285156 74.242188 38.796875 C 69.988281 38.128906 65.707031 38.128906 61.394531 38.796875 C 65.003906 39.226562 68.601562 39.742188 72.1875 40.339844 C 72.992188 40.210938 73.679688 39.867188 74.242188 39.3125 C 74.058594 40.445312 73.371094 41.128906 72.1875 41.367188 C 68.332031 40.820312 64.5625 40.132812 60.882812 39.3125 C 60.867188 38.222656 61.378906 37.539062 62.421875 37.257812 Z M 62.421875 37.257812 "/>
<use xlink:href="#surface59" mask="url(#mask18)"/>
<path style=" stroke:none;fill-rule:evenodd;fill:rgb(99.215686%,87.058824%,40%);fill-opacity:1;" d="M 32.109375 39.828125 C 32.914062 41.574219 34.113281 43.117188 35.707031 44.453125 C 34.988281 45.363281 34.21875 46.222656 33.394531 47.019531 C 33.257812 48.421875 33 49.792969 32.625 51.132812 C 31.042969 52.496094 29.84375 52.152344 29.027344 50.105469 C 29.441406 49.089844 30.128906 48.320312 31.082031 47.792969 C 30.332031 46.820312 29.476562 45.960938 28.515625 45.222656 C 29.082031 44.285156 29.851562 43.515625 30.828125 42.910156 C 31.121094 41.808594 31.550781 40.78125 32.109375 39.828125 Z M 32.109375 39.828125 "/>
<path style=" stroke:none;fill-rule:evenodd;fill:rgb(98.039216%,86.27451%,37.647059%);fill-opacity:1;" d="M 58.3125 47.019531 C 61.21875 47.257812 62.160156 48.800781 61.140625 51.644531 C 59.636719 52.960938 58.09375 52.960938 56.515625 51.644531 C 56.152344 50.398438 56.238281 49.199219 56.773438 48.046875 C 57.113281 48.046875 57.285156 47.878906 57.285156 47.535156 C 57.796875 47.621094 58.136719 47.453125 58.3125 47.019531 Z M 58.3125 47.019531 "/>
<use xlink:href="#surface62" mask="url(#mask19)"/>
<use xlink:href="#surface65" mask="url(#mask20)"/>
<use xlink:href="#surface68" mask="url(#mask21)"/>
<path style=" stroke:none;fill-rule:evenodd;fill:rgb(14.509804%,76.078431%,87.45098%);fill-opacity:1;" d="M 39.304688 54.730469 C 40.738281 54.703125 41.679688 55.390625 42.128906 56.785156 C 42.433594 58.371094 41.746094 59.226562 40.074219 59.355469 C 38.007812 58.175781 37.75 56.632812 39.304688 54.730469 Z M 39.304688 54.730469 "/>
<use xlink:href="#surface71" mask="url(#mask22)"/>
<use xlink:href="#surface74" mask="url(#mask23)"/>
<path style=" stroke:none;fill-rule:evenodd;fill:rgb(98.823529%,86.666667%,37.647059%);fill-opacity:1;" d="M 31.082031 57.296875 C 32.179688 57.117188 32.867188 57.546875 33.136719 58.582031 C 30.28125 62.296875 27.625 66.152344 25.175781 70.144531 C 24.257812 71.035156 23.144531 71.378906 21.835938 71.171875 C 21.832031 70.246094 22.089844 69.386719 22.605469 68.605469 C 25.5625 64.914062 28.386719 61.144531 31.082031 57.296875 Z M 31.082031 57.296875 "/>
</g>
</svg>
